<svg xmlns="http://www.w3.org/2000/svg" width="282" height="242" viewBox="0 0 282 242">
  <path id="Path" d="M203.057,13.368A47.121,47.121,0,0,0,164.053.4,48.106,48.106,0,0,0,130.2,22.174a48.736,48.736,0,0,0-7.661,22.148l1.912-1.915A109.835,109.835,0,0,0,72.566,50.52,47.073,47.073,0,0,0,46.487,84.967a32.257,32.257,0,0,0,4.74,22.961L52.5,104.8A73.4,73.4,0,0,0,3.733,145.585a51.91,51.91,0,0,0-2.065,32.381,40.987,40.987,0,0,0,17.7,23.8,37.017,37.017,0,0,0,31.27,4.469l-2.93-1.662a53.172,53.172,0,0,0,42,35.489,101.437,101.437,0,0,0,64.908-8.667,111.771,111.771,0,0,0,32.212-22.87l-1.741.723a99.3,99.3,0,0,0,36.138-4.457,111.2,111.2,0,0,0,30.37-14.359,68.565,68.565,0,0,0,21.186-22.172,47.038,47.038,0,0,0,6.056-27.659,37.265,37.265,0,0,0-14.387-27.032v4.379a44.63,44.63,0,0,0,17.46-38.386,43.19,43.19,0,0,0-47.642-38.669l1.79,4.325a25.927,25.927,0,0,0,5.465-29.857A24.048,24.048,0,0,0,214.661,2.93a24.484,24.484,0,0,0-14.824,9.312,2.423,2.423,0,0,0,.862,3.289,2.461,2.461,0,0,0,3.286-.861,20.969,20.969,0,0,1,22.986-6.15,19.009,19.009,0,0,1,11.883,20.545,19.469,19.469,0,0,1-6.383,12.565,2.558,2.558,0,0,0,1.79,4.325,39.359,39.359,0,0,1,34.893,14.173,37.13,37.13,0,0,1,5.429,36.284,36.207,36.207,0,0,1-12.7,17.154,2.563,2.563,0,0,0-.512,3.981,37.984,37.984,0,0,1,6.635,49.047,65.4,65.4,0,0,1-21.347,21.25,109.079,109.079,0,0,1-30.88,13.5,94.209,94.209,0,0,1-18.065,3.09c-2.962.193-5.936.175-8.9.078a16.546,16.546,0,0,0-4.39-.108,9.621,9.621,0,0,0-3.252,2.807,107.022,107.022,0,0,1-26.014,18.558,98.854,98.854,0,0,1-59.344,10.782,52.806,52.806,0,0,1-41.551-27.406A36.262,36.262,0,0,1,52.3,203.3a2.4,2.4,0,0,0-2.93-1.662A35.091,35.091,0,0,1,6.841,179.628a46.181,46.181,0,0,1,.03-29.779,56.2,56.2,0,0,1,16.836-24.774,81.878,81.878,0,0,1,29.924-16.166,2.153,2.153,0,0,0,1.273-3.132,33.2,33.2,0,0,1,2.514-37,55.324,55.324,0,0,1,38.91-21.148,163.123,163.123,0,0,1,28.122-1.4,1.954,1.954,0,0,0,1.913-1.909,45.731,45.731,0,0,1,18.448-32.261,45.089,45.089,0,0,1,36.717-7.107,48.113,48.113,0,0,1,20.083,9.86,1.024,1.024,0,0,0,1.445-1.446h0Z" fill="#e7c4b2"/>
</svg>
