<svg xmlns="http://www.w3.org/2000/svg" width="32" height="32" viewBox="0 0 32 32">
  <path id="Shape" d="M14.136,30.545l-.142-.572a1.92,1.92,0,0,0-3.244-.868l-.41.422a1.919,1.919,0,0,1-3.226-1.862l.16-.568A1.919,1.919,0,0,0,4.9,24.724l-.568.161a1.919,1.919,0,0,1-1.861-3.226l.421-.41a1.919,1.919,0,0,0-.868-3.244l-.572-.142a1.921,1.921,0,0,1,0-3.728l.572-.142a1.919,1.919,0,0,0,.868-3.244l-.421-.41A1.919,1.919,0,0,1,4.334,7.115l.568.16A1.92,1.92,0,0,0,7.277,4.9l-.162-.568A1.919,1.919,0,0,1,10.34,2.473l.41.421a1.919,1.919,0,0,0,3.244-.868l.142-.572a1.921,1.921,0,0,1,3.728,0l.142.572a1.919,1.919,0,0,0,3.244.868l.41-.421a1.919,1.919,0,0,1,3.226,1.861l-.159.568A1.919,1.919,0,0,0,27.1,7.277l.566-.162a1.92,1.92,0,0,1,1.862,3.226l-.422.41a1.92,1.92,0,0,0,.868,3.244l.572.142a1.921,1.921,0,0,1,0,3.728l-.572.142a1.92,1.92,0,0,0-.868,3.244l.422.41a1.919,1.919,0,0,1-1.862,3.226l-.568-.159A1.919,1.919,0,0,0,24.724,27.1l.161.566a1.919,1.919,0,0,1-3.226,1.862l-.41-.422a1.92,1.92,0,0,0-3.244.868l-.142.572a1.921,1.921,0,0,1-3.728,0Z" fill="#fff"/>
</svg>
