<svg xmlns="http://www.w3.org/2000/svg" xmlns:xlink="http://www.w3.org/1999/xlink" width="482" height="336" viewBox="0 0 482 336">
  <defs>
    <filter id="Rectangle" x="32" y="16" width="418" height="320" filterUnits="userSpaceOnUse">
      <feOffset dy="24" input="SourceAlpha"/>
      <feGaussianBlur stdDeviation="24" result="blur"/>
      <feFlood flood-color="#551e00" flood-opacity="0.039"/>
      <feComposite operator="in" in2="blur"/>
      <feComposite in="SourceGraphic"/>
    </filter>
    <filter id="Rectangle-2" x="16" y="8" width="450" height="320" filterUnits="userSpaceOnUse">
      <feOffset dy="24" input="SourceAlpha"/>
      <feGaussianBlur stdDeviation="24" result="blur-2"/>
      <feFlood flood-color="#551e00" flood-opacity="0.039"/>
      <feComposite operator="in" in2="blur-2"/>
      <feComposite in="SourceGraphic"/>
    </filter>
    <filter id="Rectangle-3" x="0" y="0" width="482" height="320" filterUnits="userSpaceOnUse">
      <feOffset dy="24" input="SourceAlpha"/>
      <feGaussianBlur stdDeviation="24" result="blur-3"/>
      <feFlood flood-color="#551e00" flood-opacity="0.039"/>
      <feComposite operator="in" in2="blur-3"/>
      <feComposite in="SourceGraphic"/>
    </filter>
  </defs>
  <g id="block" transform="translate(72 48)">
    <g transform="matrix(1, 0, 0, 1, -72, -48)" filter="url(#Rectangle)">
      <rect id="Rectangle-4" data-name="Rectangle" width="274" height="176" rx="6" transform="translate(104 64)" fill="#fff"/>
    </g>
    <g transform="matrix(1, 0, 0, 1, -72, -48)" filter="url(#Rectangle-2)">
      <rect id="Rectangle-5" data-name="Rectangle" width="306" height="176" rx="6" transform="translate(88 56)" fill="#fff"/>
    </g>
    <g transform="matrix(1, 0, 0, 1, -72, -48)" filter="url(#Rectangle-3)">
      <rect id="Rectangle-6" data-name="Rectangle" width="338" height="176" rx="6" transform="translate(72 48)" fill="#fff"/>
    </g>
    <circle id="Oval" cx="20" cy="20" r="20" transform="translate(24 24)" fill="#f7cc47"/>
    <rect id="Rectangle-7" data-name="Rectangle" width="75" height="14" rx="2" transform="translate(24 78)" fill="#f5ded1"/>
    <rect id="Rectangle-8" data-name="Rectangle" width="126" height="6" rx="3" transform="translate(24 100)" fill="#f5ded1"/>
    <path id="Combined_Shape" data-name="Combined Shape" d="M-.636,92.511a70.98,70.98,0,0,0-1.019-24.72A98.1,98.1,0,0,0-19.771,28.112,96.87,96.87,0,0,0-35.05,12.138,97.805,97.805,0,0,0-44.7,5.205l4.685.934a.8.8,0,0,0,.175.077c.628.159,1.253.283,1.88.39a33.277,33.277,0,0,0,3.315.5l0-.018a1.649,1.649,0,0,0,1.527-1.211,1.651,1.651,0,0,0-1.089-2.011,33.6,33.6,0,0,0-5.036-1.052l-4.846-.937Q-49.046.914-54.02.049a1.6,1.6,0,0,0-1.853.913,1.565,1.565,0,0,0,.643,1.965q.891.41,1.77.841a32.827,32.827,0,0,0,.822,6.165,26.339,26.339,0,0,0,1.089,3.432,5.282,5.282,0,0,0,1.534,2.578,1.015,1.015,0,0,0,.894.062,1.014,1.014,0,0,0,.6-.669,6.328,6.328,0,0,0-.555-2.862c-.311-1.017-.572-2.05-.838-3.083q-.55-2.115-.905-4.273A82.108,82.108,0,0,1-35.042,16.129a97.024,97.024,0,0,1,25,34.428A95.878,95.878,0,0,1-3.83,71,125.616,125.616,0,0,1-1.968,92.331h0A.719.719,0,0,0-1.221,93,.554.554,0,0,0-.636,92.511Z" transform="translate(312.5 80.5) rotate(90)" fill="#ef6d58"/>
    <rect id="Rectangle-9" data-name="Rectangle" width="289" height="6" rx="3" transform="translate(24 144)" fill="#f4e4ff"/>
    <rect id="Rectangle-10" data-name="Rectangle" width="113" height="6" rx="3" transform="translate(24 144)" fill="#b550f8"/>
  </g>
</svg>
