<svg xmlns="http://www.w3.org/2000/svg" width="146.921" height="145.85" viewBox="0 0 146.921 145.85">
  <g id="Star" transform="translate(-0.54)" fill="none" stroke-miterlimit="10">
    <path d="M74,111,56.291,145.85l.515-39.088L24.929,129.39,43.55,95.018,4.809,100.241,37.27,78.46.54,65.08,39.4,60.88,13.1,31.963,49.464,46.305,39.61,8.476l25.535,29.6L74,0l8.855,38.075,25.535-29.6L98.536,46.305,134.9,31.963,108.6,60.88l38.865,4.2L110.73,78.46l32.461,21.781L104.45,95.018l18.621,34.371L91.195,106.762l.515,39.088Z" stroke="none"/>
    <path d="M 89.59632873535156 137.2767944335938 L 89.19493103027344 106.7881927490234 L 89.14311218261719 102.8528060913086 L 92.35245513916016 105.1310119628906 L 117.2160263061523 122.7808303833008 L 102.6918869018555 95.97107696533203 L 100.817138671875 92.51052856445313 L 104.7175903320313 93.03633117675781 L 134.9355010986328 97.10978698730469 L 109.6158599853516 80.12062072753906 L 106.34765625 77.92771148681641 L 110.0457077026367 76.58064270019531 L 138.6953582763672 66.14455413818359 L 108.3807067871094 62.8680305480957 L 104.4677505493164 62.44512176513672 L 107.1161804199219 59.53378295898438 L 127.6342391967773 36.97896194458008 L 99.26931762695313 48.16564559936523 L 95.60802459716797 49.60960006713867 L 96.60013580322266 45.80094146728516 L 104.2862548828125 16.29438018798828 L 84.36902618408203 39.38157653808594 L 81.79815673828125 42.36159896850586 L 80.90666198730469 38.52816772460938 L 74 8.829530715942383 L 67.09333801269531 38.52816772460938 L 66.20184326171875 42.36159896850586 L 63.63097763061523 39.38157653808594 L 43.7137451171875 16.29438018798828 L 51.39986419677734 45.80094146728516 L 52.39197540283203 49.60960006713867 L 48.73068237304688 48.16564559936523 L 20.36576652526855 36.97896575927734 L 40.88384246826172 59.53378295898438 L 43.53227233886719 62.44512176513672 L 39.61931991577148 62.8680305480957 L 9.304642677307129 66.14455413818359 L 37.95429611206055 76.58064270019531 L 41.65233993530273 77.92771148681641 L 38.38413619995117 80.12062072753906 L 13.06449794769287 97.10978698730469 L 43.28240966796875 93.03633117675781 L 47.18286514282227 92.51052856445313 L 45.30811309814453 95.97107696533203 L 30.78397178649902 122.7808303833008 L 55.64754486083984 105.1310119628906 L 58.85688781738281 102.8528060913086 L 58.80506896972656 106.7881927490234 L 58.40366744995117 137.2767944335938 L 72.21700286865234 110.0939636230469 L 74 106.5852584838867 L 75.78299713134766 110.0939636230469 L 89.59632873535156 137.2767944335938 M 91.70936584472656 145.8497161865234 L 74 111.0000076293945 L 56.2906379699707 145.8497161865234 L 56.80524826049805 106.7618713378906 L 24.92893218994141 129.3898010253906 L 43.54959106445313 95.01839447021484 L 4.80879545211792 100.2407608032227 L 37.26977157592773 78.45985412597656 L 0.539545476436615 65.08028411865234 L 39.4044075012207 60.87962341308594 L 13.09920501708984 31.96321487426758 L 49.46445465087891 46.30509948730469 L 39.61047744750977 8.476259231567383 L 65.14531707763672 38.07514572143555 L 74 9.554776625009254e-06 L 82.85468292236328 38.07514572143555 L 108.3895263671875 8.476259231567383 L 98.53554534912109 46.30509948730469 L 134.9008026123047 31.96321487426758 L 108.5956115722656 60.87962341308594 L 147.46044921875 65.08028411865234 L 110.730224609375 78.45985412597656 L 143.1912078857422 100.2407608032227 L 104.4504089355469 95.01839447021484 L 123.0710678100586 129.3898010253906 L 91.19474792480469 106.7618713378906 L 91.70936584472656 145.8497161865234 Z" stroke="none" fill="#6a6c8e"/>
  </g>
</svg>
